<?xml version="1.0" encoding="utf-8"?>
<!-- Generator: Adobe Illustrator 16.0.3, SVG Export Plug-In . SVG Version: 6.00 Build 0)  -->
<svg version="1.1" id="Bunge_Logo" xmlns="http://www.w3.org/2000/svg" xmlns:xlink="http://www.w3.org/1999/xlink" x="0px" y="0px"
	 width="820px" height="205px" viewBox="0 0 820 205" enable-background="new 0 0 820 205" xml:space="preserve">
<path fill="#1556A2" d="M128.96,80.26c7.985,4.79,10.379,13.569,8.781,21.559c-2.395,13.575-16.766,21.555-27.945,24.751
	c11.978,2.396,25.551,4.789,32.734,16.765c5.589,9.584,3.992,24.76-3.993,33.535c-15.172,16.769-38.323,15.167-59.88,15.968H10
	c0-62.279,0-68.66,0-120.556c39.119,0,45.511,0,69.462,0C95.432,72.276,114.591,71.479,128.96,80.26L128.96,80.26z M93.833,85.05
	c-43.117-0.798-37.527-0.798-55.889,0c0,29.541,0,2.395,0,36.726c18.361,0.801,38.323,0.801,55.889-2.395
	c8.781-1.598,18.363-5.59,20.757-15.172c1.598-5.59,0.8-10.38-3.196-14.372C106.607,85.85,100.219,85.05,93.833,85.05L93.833,85.05z
	 M107.403,137.751c-21.558-7.193-44.708-3.992-68.661-3.992l-0.797,47.104c34.331,0.8,36.726,0.8,54.29-0.801
	c10.38-0.81,20.758-4.802,25.548-14.367c3.991-6.393,3.193-16.769-1.599-22.359C113.793,140.942,110.599,139.342,107.403,137.751
	L107.403,137.751z M310.998,72.276c0,60.683,0,50.298,0,73.458c0,16.769-11.976,32.728-27.943,39.92
	c-19.959,9.573-44.708,11.175-68.662,7.184c-16.77-2.393-35.929-10.375-42.314-27.943c-2.395-6.392-3.992-12.784-3.992-19.968
	l0.8-72.648c14.372,1.598,11.175,0.795,23.953,0c0,60.683-0.795,49.501,0,75.05c0.796,11.976,7.983,26.352,20.757,30.343
	c16.77,5.583,37.527,7.186,54.291,1.591c10.379-3.19,19.961-13.565,23.153-23.951c1.596-5.581,2.394-11.976,2.394-17.559V72.276
	C303.811,73.072,304.613,73.072,310.998,72.276L310.998,72.276z M481.857,72.276c0,79.842,0,15.967,0,120.561h-10.379
	c-37.527-29.543-77.447-60.678-114.969-89.426c0,7.188,0,35.931,0,88.625c-5.59-0.801-12.773-0.801-17.565,0V72.276
	c-0.798,0,12.771,0,13.574,0c3.196,0,74.25,55.888,110.976,83.833c0.795-45.511,0-35.929,0-83.833
	C469.883,73.072,476.266,72.276,481.857,72.276L481.857,72.276z M663.092,80.26c-2.389,5.59-4.787,11.977-7.18,18.364
	c-23.158-19.164-55.096-22.355-83.834-15.172c-17.563,3.992-35.932,17.564-39.127,36.725c-3.189,19.157,0.801,38.316,15.973,50.292
	c21.557,16.776,55.092,16.776,81.438,10.384l7.189-2.391c0-4.792,0-15.968,0-35.136c-5.596,0-11.979,0.8-17.564,0.8
	c0-3.992,0-8.784,0-12.775c13.572,1.601,30.34,0.8,41.518,1.601v53.494c-30.342,7.983-68.662,11.983-102.193,4.793
	c-22.359-3.992-47.107-19.159-52.699-43.119c-5.588-21.553,0.805-43.908,19.164-58.28c28.744-21.553,68.662-23.15,105.389-18.364
	C642.338,73.072,653.514,75.47,663.092,80.26L663.092,80.26z M807.604,72.276c-1.596,4.788,0,8.778,0,13.568
	c-12.771-1.598-26.346-1.598-38.322-1.598h-57.484c0,35.133-0.797,23.953-0.797,36.725c30.34,0,60.68-0.8,91.816-0.8
	c-0.799,3.992-0.799,8.784,0,12.778c-31.139-0.801-60.682,0-91.02,0c0,43.91-0.799,31.135,0,46.302c18.365,0.8,36.727,0,55.891,0
	c13.564-0.791,27.943,0,42.313-2.392c0,4.791-1.596,11.976,0,15.967c-119.766,0-25.547,0-122.951,0c0-42.319-0.807-80.635,0-120.556
	C736.547,72.276,694.23,72.276,807.604,72.276L807.604,72.276z"/>
<path fill="#1556A2" d="M272.228,20.29H214.04C221.992,13.859,232.11,10,243.134,10C254.158,10,264.276,13.858,272.228,20.29z
	 M199.472,40.872h87.325c-1.295-3.664-3.033-7.117-5.158-10.291H204.63C202.505,33.755,200.767,37.208,199.472,40.872z
	 M196.826,56.308c0,1.74,0.104,3.455,0.291,5.146h92.033c0.188-1.69,0.291-3.405,0.291-5.146c0-1.74-0.104-3.455-0.291-5.146
	h-92.033C196.931,52.853,196.826,54.568,196.826,56.308z M204.63,82.036h77.009c2.125-3.174,3.863-6.627,5.158-10.291h-87.325
	C200.767,75.408,202.505,78.861,204.63,82.036z M243.134,102.616c11.022,0,21.142-3.858,29.094-10.29H214.04
	C221.993,98.758,232.111,102.616,243.134,102.616z"/>
</svg>
